<?xml version="1.0" standalone="no"?>
<!DOCTYPE svg PUBLIC "-//W3C//DTD SVG 20010904//EN"
 "http://www.w3.org/TR/2001/REC-SVG-20010904/DTD/svg10.dtd">
<svg version="1.0" xmlns="http://www.w3.org/2000/svg"
 width="194.000000pt" height="194.000000pt" viewBox="0 0 194.000000 194.000000"
 preserveAspectRatio="xMidYMid meet">
<metadata>
Created by potrace 1.14, written by Peter Selinger 2001-2017
</metadata>
<g transform="translate(0.000000,194.000000) scale(0.100000,-0.100000)"
fill="#000000" stroke="none">
<path d="M236 1602 c-3 -5 -16 -7 -28 -5 -13 2 -34 0 -48 -6 l-25 -10 23 -7
c32 -9 21 -30 -15 -26 -17 2 -35 -3 -41 -11 -10 -12 -2 -25 43 -68 31 -30 58
-64 61 -76 6 -23 7 -23 38 -5 39 21 45 29 39 53 -3 11 6 36 21 59 39 59 35 70
-19 50 -32 -12 -75 -3 -75 16 0 8 6 14 14 14 16 0 31 18 23 26 -3 3 -8 1 -11
-4z"/>
<path d="M590 1580 c0 -5 4 -10 9 -10 6 0 13 5 16 10 3 6 -1 10 -9 10 -9 0
-16 -4 -16 -10z"/>
<path d="M707 1563 c-3 -2 -28 -6 -57 -8 -79 -6 -88 -19 -43 -69 20 -22 44
-45 54 -50 10 -5 22 -19 26 -33 l8 -23 30 29 c54 53 65 67 65 82 0 8 5 20 12
27 7 7 8 15 3 21 -12 10 -92 30 -98 24z"/>
<path d="M1383 1551 c-40 -4 -75 -10 -78 -12 -3 -3 0 -32 6 -64 10 -58 10 -59
-15 -78 -31 -22 -34 -47 -7 -47 22 0 30 -9 36 -41 6 -31 10 -33 37 -15 16 10
25 27 26 48 3 33 36 78 58 78 14 0 74 -78 74 -95 0 -6 11 -22 25 -35 17 -16
22 -27 15 -35 -5 -7 -7 -15 -3 -18 7 -7 20 -42 72 -192 18 -49 36 -99 41 -110
4 -11 11 -29 16 -40 4 -11 18 -49 31 -85 13 -36 24 -76 24 -89 -1 -13 4 -30
11 -38 9 -11 9 -16 -2 -23 -22 -14 -11 -17 72 -23 54 -4 82 -2 94 7 18 13 12
36 -9 36 -16 0 -35 43 -32 73 2 18 -3 27 -17 30 -13 4 -19 11 -15 21 7 19 -20
76 -37 76 -6 0 -17 -5 -24 -12 -9 -9 -12 -7 -12 9 0 11 10 27 22 35 13 9 18
19 14 27 -6 9 -11 8 -21 -6 -11 -14 -16 -15 -26 -6 -9 9 -9 16 -1 25 7 9 7 19
2 28 -6 8 -10 34 -10 57 0 23 -5 45 -12 49 -8 5 -6 10 8 15 18 7 18 8 -4 15
-19 6 -62 78 -62 105 0 5 -9 18 -21 30 -13 13 -19 30 -17 47 2 21 -3 30 -25
40 -28 14 -28 38 1 27 14 -5 14 -4 -1 13 -12 14 -14 21 -5 30 8 8 4 14 -15 23
-24 11 -27 18 -27 60 0 26 -3 50 -7 52 -17 10 -113 14 -180 8z"/>
<path d="M1245 1330 c-3 -5 -1 -10 4 -10 6 0 11 5 11 10 0 6 -2 10 -4 10 -3 0
-8 -4 -11 -10z"/>
<path d="M206 1284 c-4 -10 -2 -22 3 -27 7 -7 13 -5 17 7 4 10 2 22 -3 27 -7
7 -13 5 -17 -7z"/>
<path d="M1250 1275 c7 -8 17 -12 22 -9 6 4 5 10 -3 15 -22 14 -33 10 -19 -6z"/>
<path d="M261 1255 c-21 -25 -22 -30 -10 -52 8 -16 15 -20 17 -11 2 7 8 23 14
34 5 12 8 29 6 39 -2 14 -7 12 -27 -10z"/>
<path d="M1281 1226 c-15 -16 -19 -26 -11 -31 6 -4 8 -15 5 -26 -13 -39 34 -7
48 34 7 18 -1 47 -12 47 -4 0 -18 -11 -30 -24z"/>
<path d="M1343 1205 c-14 -32 -3 -32 20 0 13 18 14 25 5 25 -7 0 -18 -11 -25
-25z"/>
<path d="M346 1173 c-11 -12 -120 -21 -127 -11 -3 5 -9 -12 -13 -38 -3 -26 -5
-49 -3 -51 12 -11 133 -24 194 -21 39 3 78 1 87 -4 8 -5 17 -4 21 2 3 5 31 10
61 10 57 0 65 9 35 39 -10 10 -20 24 -22 30 -3 9 -103 31 -225 51 0 0 -4 -3
-8 -7z"/>
<path d="M1190 1142 c0 -12 19 -26 26 -19 2 2 -2 10 -11 17 -9 8 -15 8 -15 2z"/>
<path d="M1321 1114 c0 -11 3 -14 6 -6 3 7 2 16 -1 19 -3 4 -6 -2 -5 -13z"/>
<path d="M713 1044 c-1 -42 -6 -81 -12 -87 -13 -16 -2 -67 14 -67 17 0 8 -33
-16 -59 -10 -11 -19 -27 -19 -35 0 -8 -4 -18 -10 -21 -16 -10 -12 -57 7 -77
16 -18 16 -19 -5 -25 -12 -3 -22 -10 -22 -15 0 -6 -13 -8 -30 -4 -30 6 -35 0
-24 -27 4 -12 12 -13 41 -5 38 10 110 2 132 -16 12 -9 13 -8 8 7 -4 10 -7 27
-7 38 0 10 -5 18 -12 17 -21 -5 -20 31 1 61 23 32 26 52 12 66 -16 16 -26 115
-12 115 7 0 9 9 5 24 -3 13 -1 33 5 44 9 17 7 24 -15 41 -19 15 -22 21 -11 21
23 0 32 21 13 32 -9 5 -16 18 -16 28 0 11 -6 20 -12 20 -9 0 -14 -23 -15 -76z
m-13 -299 c0 -8 -4 -15 -10 -15 -5 0 -10 7 -10 15 0 8 5 15 10 15 6 0 10 -7
10 -15z m30 -66 c0 -5 -4 -9 -10 -9 -5 0 -10 7 -10 16 0 8 5 12 10 9 6 -3 10
-10 10 -16z"/>
<path d="M1248 995 c-10 -17 -13 -59 -5 -72 5 -8 3 -13 -5 -13 -9 0 -13 -11
-12 -27 l1 -28 202 2 c112 1 205 3 208 6 2 3 -12 27 -31 54 -20 26 -39 56 -42
66 -9 26 -49 21 -62 -8 -14 -30 -32 -33 -32 -6 0 26 -19 31 -51 15 -18 -9 -36
-11 -57 -5 -21 6 -34 5 -43 -4 -25 -24 -52 -22 -59 5 -3 14 -9 20 -12 15z"/>
<path d="M167 948 c-2 -18 -1 -37 3 -43 4 -5 8 -36 8 -68 0 -46 -4 -60 -18
-69 -14 -9 -16 -16 -9 -31 12 -21 3 -71 -15 -86 -7 -6 -28 -13 -45 -15 -18 -2
-37 -8 -43 -14 -19 -19 20 -26 62 -12 34 11 79 9 131 -6 15 -4 16 13 15 166 0
93 -4 170 -8 170 -5 0 -8 9 -8 20 0 22 -16 27 -23 8 -4 -10 -7 -10 -18 0 -20
19 -26 15 -32 -20z"/>
<path d="M1127 854 c-11 -15 -15 -32 -11 -48 8 -34 -23 -86 -53 -86 -25 0 -39
-17 -35 -42 2 -10 -2 -18 -7 -18 -6 0 -11 -4 -11 -9 0 -4 27 -9 60 -10 54 -1
60 0 60 18 0 11 5 23 10 26 14 9 12 48 -2 64 -11 11 -9 13 10 8 20 -5 22 -3
15 16 -4 12 -7 39 -6 59 3 46 -7 53 -30 22z"/>
</g>
</svg>
